<svg xmlns="http://www.w3.org/2000/svg" viewBox="0 0 500 110.21"><defs><style>.cls-1{fill:#012754;}</style></defs><g id="Layer_2" data-name="Layer 2"><g id="Artwork"><path class="cls-1" d="M273.9,65.78v22.9a4.4,4.4,0,0,1-4.4,4.39h-.29a4.4,4.4,0,0,1-4.4-4.39V69c0-10-3.76-15.06-11.19-15.06-10.52,0-14.44,9.35-14.44,15.24V88.68a4.4,4.4,0,0,1-4.39,4.39h-.29a4.4,4.4,0,0,1-4.4-4.39V50.61a4.4,4.4,0,0,1,8.8-.2l.09,2a.28.28,0,0,0,.19.26.29.29,0,0,0,.32-.07,23.64,23.64,0,0,1,16.82-7.32C267.49,45.31,273.9,52.77,273.9,65.78Zm-65.62.53-3.07-1.17c-6.77-2.55-10.16-3.83-10.16-7s3.68-5,7.24-5c2.25,0,5.25.81,6.89,3.08A4.42,4.42,0,0,0,213.91,58,4.35,4.35,0,0,0,216,50.91c-3.11-3.56-8.18-5.6-13.91-5.6-7.79,0-16.06,4.5-16.06,12.82,0,8,7.07,11.42,13.21,13.49l3,1.13c7.38,2.72,10.75,4,10.75,8,0,3.14-3.48,5.26-8.67,5.26-4.68,0-8.2-1.59-9.93-4.47a4.43,4.43,0,0,0-3.85-2.14H190a4.23,4.23,0,0,0-3.62,2.17,4.07,4.07,0,0,0,0,4.08C189.5,91,195.8,94,204.18,94c10.73,0,17.94-5.22,17.94-13C222.12,74.36,217.85,69.84,208.28,66.31Zm291-18.11a4.38,4.38,0,0,0-3.68-2h-.16a4.39,4.39,0,0,0-4,2.66L477.94,80.11a.44.44,0,0,1-.42.27h0a.45.45,0,0,1-.42-.27L463.47,48.85a4.4,4.4,0,0,0-4-2.64h-.16a4.41,4.41,0,0,0-4,6.16l17.22,39.51a1.07,1.07,0,0,1,0,.86l-4.77,11.33a4.39,4.39,0,0,0,4,6.14h.07a4.41,4.41,0,0,0,4-2.65l23.79-55.2A4.4,4.4,0,0,0,499.28,48.2ZM332.34,50.61V88.68a4.43,4.43,0,0,1-8.85.15l-.11-3.09a.38.38,0,0,0-.27-.35.39.39,0,0,0-.42.15A21,21,0,0,1,305.58,94c-13.29,0-23.7-10.72-23.7-24.42s10.41-24.24,23.7-24.24a21,21,0,0,1,17.11,8.44.36.36,0,0,0,.42.14.35.35,0,0,0,.27-.35l.11-3.08a4.43,4.43,0,0,1,8.85.15Zm-9.9,18.94A15.48,15.48,0,0,0,306.75,54a15.86,15.86,0,0,0-11.81,5.27,15.32,15.32,0,0,0-3.88,12.06,15.94,15.94,0,0,0,16.92,14A15.58,15.58,0,0,0,322.44,69.55Zm128.51,0C451,83.25,440.5,94,427.16,94a20.72,20.72,0,0,1-17.09-8.43.27.27,0,0,0-.3-.11.28.28,0,0,0-.2.27v20.12a4.4,4.4,0,0,1-4.39,4.39h-.3a4.4,4.4,0,0,1-4.39-4.39V50.61a4.4,4.4,0,0,1,8.79-.19l.15,3.42a.26.26,0,0,0,.19.25.26.26,0,0,0,.29-.1,20.62,20.62,0,0,1,17.25-8.68C440.5,45.31,451,56,451,69.55ZM426,54a15.7,15.7,0,1,0,0,31.39A15.7,15.7,0,1,0,426,54Zm-34.06,15.6c0,13.7-10.45,24.42-23.79,24.42a20.7,20.7,0,0,1-17.08-8.43.27.27,0,0,0-.5.16v20.12a4.4,4.4,0,0,1-4.4,4.39h-.29a4.4,4.4,0,0,1-4.4-4.39V50.61a4.4,4.4,0,0,1,8.79-.19l.15,3.42a.27.27,0,0,0,.2.25.27.27,0,0,0,.29-.1,20.62,20.62,0,0,1,17.24-8.68C381.48,45.31,391.93,56,391.93,69.55ZM367,54a15.7,15.7,0,0,0,0,31.39A15.7,15.7,0,1,0,367,54Z"/><path class="cls-1" d="M167.48,61.83c-1.81-10.26-12.08-17.21-23.59-16.47a5.52,5.52,0,0,1-4.65-2A68.64,68.64,0,0,0,111.34,23h.41C101.12,16.42,96.11,4.32,90.81,4.32s-.09,10.76-4.19,10.76S78.46,0,71.9,0s-.79,16-4.45,16-5-4.88-10.58-4.88c-3.92,0-2.82,6.09-1.84,9.68a3,3,0,0,1-1.61,3.52c-9.66,4.55-19.54,12.51-24.85,19a5.55,5.55,0,0,1-4.64,2.08C12.39,44.59,2.09,51.55.28,61.83-1.11,69.7,2.84,77.44,9.76,82.08a5.43,5.43,0,0,1,2.41,4.8c-.08,1.48-.12,3-.12,4.48.2,3.45,5.64,3.47,5.64,0,0-9.1,9.15-60.24,66.2-60.24s66.18,51.14,66.18,60.24c0,3.46,5.36,3.46,5.64,0q0-2.28-.12-4.5A5.43,5.43,0,0,1,158,82.08c6.9-4.64,10.86-12.38,9.47-20.25M14.25,72.6a1.81,1.81,0,0,1-3.05.86A12,12,0,0,1,7.76,63.15c.88-5,5.22-8.73,10.74-9.88a1.81,1.81,0,0,1,2,2.6A74.4,74.4,0,0,0,14.25,72.6m139.29,0a74.72,74.72,0,0,0-6.11-16.66,1.8,1.8,0,0,1,2-2.59c5.46,1.18,9.73,4.88,10.61,9.85a12,12,0,0,1-3.36,10.22,1.81,1.81,0,0,1-3.1-.82M122.35,65.8c3.26,0,5.91,3.41,5.91,7.59s-2.65,7.6-5.91,7.6-5.91-3.41-5.91-7.6,2.65-7.59,5.91-7.59m-76.94,0c3.26,0,5.91,3.41,5.91,7.59S48.67,81,45.41,81s-5.91-3.41-5.91-7.6,2.65-7.59,5.91-7.59m65.12,28.74a2.38,2.38,0,0,1,0,4.75h0a9.83,9.83,0,0,1-3.72-.86c-1.4,1.11-9.51,7.07-22.89,7.07-13.15,0-21.21-5.75-22.81-7a9.9,9.9,0,0,1-3.56.8h0a2.38,2.38,0,0,1,0-4.75A6.2,6.2,0,0,0,61.93,92,2.37,2.37,0,1,1,66,94.37a8.1,8.1,0,0,1-.58.86,34.17,34.17,0,0,0,18.45,5.09,34.11,34.11,0,0,0,18.6-5.19,7.52,7.52,0,0,1-.5-.75A2.37,2.37,0,0,1,106.09,92a6.17,6.17,0,0,0,4.44,2.57"/></g></g></svg>